PathFileType   4   (X/Y/Z)
DataRate	CameraRate	NumFrames	NumMarkers	Units	OrigDataRate	OrigDataStartFrame	OrigNumFrames
120.0	120.0	11	37	mm	120.0	95	126
Frame#	Time	midhip	hip_r	hip_l	knee_r	knee_l	ankle_r	ankle_l	midasis	asis_r	asis_l	psis_r	psis_l	epicondLat_r	epicondLat_l	epicondMed_r	epicondMed_l	malleolusLat_r	malleolusLat_l	malleolusMedv_r	malleolusMedv_l	neck	subclavicle_r	subclavicle_l	sternalnotch	xyphoidprocess	thighwand_r	thighwand_l	upperleg1_r	upperleg1_l	upperleg2_r	upperleg2_l	shankwand_r	shankwand_l	lowerleg1_r	lowerleg1_l	toe_r	toe_l
 	 	X1	Y1	Z1	X2	Y2	Z2	X3	Y3	Z3	X4	Y4	Z4	X5	Y5	Z5	X6	Y6	Z6	X7	Y7	Z7	X8	Y8	Z8	X9	Y9	Z9	X10	Y10	Z10	X11	Y11	Z11	X12	Y12	Z12	X13	Y13	Z13	X14	Y14	Z14	X15	Y15	Z15	X16	Y16	Z16	X17	Y17	Z17	X18	Y18	Z18	X19	Y19	Z19	X20	Y20	Z20	X21	Y21	Z21	X22	Y22	Z22	X23	Y23	Z23	X24	Y24	Z24	X25	Y25	Z25	X26	Y26	Z26	X27	Y27	Z27	X28	Y28	Z28	X29	Y29	Z29	X30	Y30	Z30	X31	Y31	Z31	X32	Y32	Z32	X33	Y33	Z33	X34	Y34	Z34	X35	Y35	Z35	X36	Y36	Z36	X37	Y37	Z37

	95	0.93333	2182.268	902.835	-236.028	2189.969	892.386	-181.054	2176.445	893.416	-286.757	2201.688	484.505	-189.741	2300.181	491.377	-326.657	2123.563	70.190	-188.072	2121.912	116.261	-299.004	2259.963	990.908	-242.770	2273.063	989.910	-140.381	2246.863	991.906	-345.160	2064.786	1014.745	-185.596	2053.532	1014.294	-270.136	2215.505	483.669	-131.874	2292.025	494.707	-385.501	2182.982	500.346	-242.643	2308.529	486.351	-276.694	2126.351	69.817	-150.176	2109.029	119.642	-336.190	2121.048	77.992	-219.867	2135.701	126.903	-272.094	2108.423	1468.765	-205.983	2221.234	1395.010	-141.586	2197.411	1408.875	-295.143	2196.497	1402.960	-220.308	2240.383	1205.232	-251.823	2252.355	590.231	-49.538	2409.423	652.968	-358.512	2261.990	652.461	-119.742	2315.774	687.743	-382.130	2257.605	571.347	-144.885	2331.496	601.310	-378.830	2165.094	140.352	-86.282	2256.207	178.034	-327.676	2147.096	202.439	-141.454	2218.727	251.608	-324.595	2244.553	42.381	-216.020	2226.416	62.538	-324.749
	96	0.94167	2190.569	902.507	-235.937	2198.004	891.985	-181.211	2184.964	893.181	-286.974	2204.994	483.991	-189.436	2313.892	492.284	-326.278	2123.749	70.205	-188.129	2148.108	111.485	-299.114	2268.198	990.668	-242.442	2280.833	989.510	-139.972	2255.564	991.827	-344.913	2072.751	1014.310	-186.063	2061.907	1013.863	-270.639	2218.528	483.055	-131.503	2306.138	495.565	-385.179	2186.805	499.879	-242.259	2321.547	487.559	-276.248	2126.522	69.780	-150.233	2135.338	114.386	-336.380	2120.987	78.016	-219.912	2161.016	122.588	-272.007	2117.172	1468.501	-206.476	2229.992	1394.558	-142.107	2205.920	1408.254	-295.698	2205.130	1402.449	-220.825	2248.528	1204.580	-252.124	2256.220	589.640	-49.114	2421.049	655.545	-357.076	2266.529	651.619	-119.357	2327.227	689.109	-381.456	2261.630	570.495	-144.380	2343.974	602.895	-378.092	2165.784	140.006	-86.242	2280.363	177.893	-327.070	2148.188	202.253	-141.283	2240.423	250.109	-324.308	2244.597	42.307	-216.042	2254.847	62.132	-324.394
	97	0.95000	2198.799	902.007	-235.817	2206.051	891.499	-181.414	2193.478	892.854	-287.231	2208.325	483.443	-189.195	2327.383	493.113	-325.854	2123.926	70.222	-188.194	2174.494	106.902	-299.387	2276.428	990.342	-242.175	2288.611	989.030	-139.645	2264.245	991.655	-344.706	2080.720	1013.801	-186.546	2070.276	1013.319	-271.162	2221.625	482.411	-131.210	2320.007	496.339	-384.807	2190.435	499.342	-241.903	2334.447	488.609	-275.737	2126.709	69.745	-150.299	2161.813	109.364	-336.715	2120.787	78.028	-220.086	2186.683	118.464	-272.166	2125.957	1468.157	-207.046	2238.738	1394.005	-142.673	2214.459	1407.534	-296.269	2213.772	1401.841	-221.376	2256.637	1203.820	-252.448	2260.228	589.015	-48.803	2432.529	657.847	-355.716	2271.131	650.713	-119.174	2338.516	690.277	-380.767	2265.644	569.573	-144.043	2356.255	604.292	-377.336	2166.525	139.627	-86.274	2304.437	177.957	-326.693	2149.326	202.000	-141.226	2262.027	248.697	-324.180	2244.676	42.246	-216.083	2283.252	61.969	-324.108
	98	0.95833	2207.093	901.473	-235.695	2214.123	890.926	-181.667	2202.009	892.441	-287.535	2211.652	482.869	-189.029	2340.640	493.882	-325.381	2124.084	70.255	-188.270	2201.022	102.552	-299.810	2284.668	989.935	-241.960	2296.407	988.467	-139.374	2272.930	991.403	-344.546	2088.704	1013.214	-187.052	2078.648	1012.660	-271.709	2224.784	481.743	-131.007	2333.616	497.041	-384.381	2193.915	498.866	-241.734	2347.127	489.431	-275.250	2126.903	69.726	-150.378	2188.397	104.614	-337.181	2120.771	77.971	-220.186	2212.590	114.539	-272.564	2134.764	1467.683	-207.667	2247.500	1393.359	-143.285	2223.057	1406.700	-296.860	2222.452	1401.127	-221.962	2264.839	1202.962	-252.778	2264.405	588.346	-48.614	2443.857	659.883	-354.437	2275.790	649.755	-119.129	2349.723	691.249	-380.031	2269.662	568.555	-143.947	2368.348	605.459	-376.583	2167.308	139.229	-86.375	2328.390	178.241	-326.547	2150.547	201.719	-141.264	2283.499	247.377	-324.218	2244.761	42.203	-216.152	2311.538	62.040	-323.893
	99	0.96667	2215.408	900.864	-235.604	2222.233	890.263	-181.961	2210.564	891.944	-287.876	2214.964	482.274	-188.940	2353.652	494.587	-324.857	2124.214	70.316	-188.354	2227.625	98.476	-300.355	2292.930	989.446	-241.790	2304.238	987.817	-139.152	2281.622	991.074	-344.428	2096.708	1012.546	-187.588	2087.018	1011.895	-272.290	2228.000	481.049	-130.898	2346.951	497.668	-383.898	2197.313	498.593	-241.738	2359.504	490.132	-274.837	2127.089	69.737	-150.467	2215.034	100.169	-337.756	2120.930	77.946	-220.290	2238.442	110.905	-273.053	2143.546	1467.108	-208.293	2256.206	1392.681	-143.891	2231.678	1405.760	-297.469	2231.116	1400.339	-222.563	2273.099	1202.031	-253.011	2268.757	587.615	-48.566	2455.026	661.675	-353.238	2280.517	648.832	-119.171	2360.789	692.088	-379.378	2273.722	567.617	-144.035	2380.227	606.479	-375.908	2168.107	138.833	-86.520	2352.195	178.765	-326.582	2151.760	201.520	-141.367	2304.857	246.211	-324.346	2244.820	42.170	-216.264	2339.661	62.372	-323.764
	100	0.97500	2223.702	900.136	-235.562	2230.381	889.509	-182.294	2219.145	891.360	-288.254	2218.275	481.671	-188.912	2366.416	495.213	-324.277	2124.312	70.405	-188.449	2254.245	94.719	-300.980	2301.216	988.870	-241.661	2312.104	987.077	-138.979	2290.328	990.664	-344.343	2104.727	1011.790	-188.161	2095.385	1011.031	-272.920	2231.295	480.342	-130.869	2360.008	498.203	-383.355	2200.569	498.486	-241.651	2371.601	490.799	-274.399	2127.250	69.777	-150.568	2241.682	96.060	-338.405	2121.153	78.087	-220.604	2264.456	107.686	-273.647	2152.322	1466.416	-208.953	2264.868	1391.997	-144.480	2240.306	1404.776	-298.059	2239.762	1399.518	-223.150	2281.463	1201.089	-253.185	2273.301	586.806	-48.672	2466.027	663.235	-352.113	2285.384	647.987	-119.316	2371.680	692.845	-378.790	2277.837	566.874	-144.155	2391.874	607.397	-375.263	2168.895	138.455	-86.683	2375.836	179.544	-326.711	2152.905	201.410	-141.498	2326.090	245.279	-324.480	2244.847	42.139	-216.405	2367.590	62.982	-323.728
	101	0.98333	2232.080	899.391	-235.584	2238.538	888.660	-182.675	2227.747	890.687	-288.678	2221.572	481.064	-188.924	2378.949	495.742	-323.654	2124.384	70.516	-188.555	2280.829	91.312	-301.642	2309.516	988.202	-241.567	2319.973	986.238	-138.847	2299.059	990.166	-344.286	2112.769	1010.941	-188.775	2103.770	1010.078	-273.595	2234.670	479.629	-130.902	2372.811	498.627	-382.766	2203.840	498.329	-241.549	2383.468	491.366	-273.844	2127.384	69.839	-150.680	2268.312	92.310	-339.093	2121.361	78.270	-220.899	2290.528	104.732	-274.288	2161.066	1465.593	-209.582	2273.556	1391.246	-145.049	2248.962	1403.797	-298.640	2248.434	1398.656	-223.723	2290.035	1200.160	-253.458	2278.065	585.918	-48.920	2476.850	664.573	-351.051	2290.369	647.128	-119.569	2382.454	693.467	-378.172	2282.062	566.091	-144.370	2403.320	608.132	-374.569	2169.668	138.108	-86.837	2399.301	180.579	-326.840	2154.077	201.306	-141.620	2347.200	244.550	-324.594	2244.842	42.099	-216.558	2395.299	63.850	-323.776
	102	0.99167	2240.583	898.665	-235.670	2246.695	887.720	-183.101	2236.372	889.925	-289.147	2224.848	480.451	-188.954	2391.282	496.157	-323.012	2124.445	70.649	-188.661	2307.328	88.273	-302.305	2317.838	987.433	-241.501	2327.840	985.297	-138.749	2307.836	989.570	-344.253	2120.857	1010.007	-189.418	2112.196	1009.054	-274.303	2238.125	478.905	-130.974	2385.397	498.929	-382.156	2207.177	498.040	-241.533	2395.078	491.795	-273.224	2127.506	69.926	-150.791	2294.899	88.928	-339.793	2121.483	78.422	-221.054	2316.279	101.943	-274.839	2169.788	1464.679	-210.188	2282.234	1390.375	-145.625	2257.660	1402.772	-299.242	2257.123	1397.710	-224.316	2298.668	1199.171	-253.836	2283.053	584.950	-49.283	2487.486	665.696	-350.039	2295.458	646.168	-119.973	2393.028	693.884	-377.584	2286.410	565.178	-144.754	2414.520	608.682	-373.873	2170.436	137.804	-86.958	2422.577	181.869	-326.891	2155.270	201.172	-141.699	2368.217	243.950	-324.667	2244.803	42.028	-216.714	2422.760	64.939	-323.883
	103	1.00000	2249.619	898.427	-235.847	2254.860	886.695	-183.561	2245.025	889.072	-289.650	2228.136	479.822	-188.975	2403.429	496.434	-322.363	2124.524	70.809	-188.755	2333.695	85.605	-302.948	2326.201	986.557	-241.464	2335.730	984.254	-138.686	2316.673	988.861	-344.243	2129.000	1009.009	-190.075	2120.677	1007.979	-275.039	2241.677	478.162	-131.060	2397.788	499.089	-381.536	2210.610	497.641	-241.516	2406.366	492.059	-272.564	2127.637	70.041	-150.890	2321.408	85.916	-340.487	2121.592	78.602	-221.159	2341.965	99.484	-275.338	2178.541	1463.742	-210.876	2290.925	1389.409	-146.207	2266.351	1401.619	-299.881	2265.815	1396.661	-224.927	2307.160	1198.039	-254.171	2288.256	583.899	-49.730	2497.930	666.594	-349.054	2300.691	645.107	-120.495	2403.382	694.058	-377.031	2290.910	564.214	-145.211	2425.434	609.053	-373.187	2171.209	137.545	-87.035	2445.655	183.411	-326.817	2156.507	201.045	-141.736	2389.066	243.474	-324.661	2244.771	41.943	-216.849	2449.965	66.214	-324.019
	104	1.00833	2259.156	898.674	-236.121	2263.037	885.595	-184.051	2253.706	888.135	-290.181	2231.519	479.171	-188.973	2415.402	496.562	-321.707	2124.645	70.996	-188.826	2359.896	83.308	-303.555	2334.615	985.575	-241.457	2343.653	983.114	-138.658	2325.576	988.035	-344.255	2137.207	1007.964	-190.752	2129.215	1006.874	-275.801	2245.376	477.396	-131.136	2410.005	499.100	-380.907	2214.324	497.236	-241.576	2417.380	492.193	-271.726	2127.795	70.185	-150.965	2347.806	83.280	-341.160	2121.749	78.816	-221.189	2367.690	97.379	-275.875	2187.338	1462.755	-211.613	2299.605	1388.383	-146.815	2275.071	1400.348	-300.571	2274.517	1395.527	-225.580	2315.590	1196.793	-254.449	2293.651	582.772	-50.220	2508.182	667.270	-348.065	2306.105	644.011	-121.013	2413.602	694.018	-376.470	2295.633	563.223	-145.703	2436.147	609.187	-372.424	2172.001	137.324	-87.062	2468.506	185.198	-326.607	2157.826	200.965	-141.740	2409.720	243.130	-324.578	2244.788	41.878	-216.938	2476.925	67.652	-324.156
	105	1.01667	2268.281	898.353	-236.426	2271.227	884.440	-184.556	2262.417	887.126	-290.727	2235.140	478.507	-188.945	2427.215	496.552	-321.060	2124.824	71.206	-188.865	2385.891	81.392	-304.125	2343.083	984.500	-241.472	2351.615	981.898	-138.655	2334.551	987.101	-344.289	2145.504	1006.890	-191.472	2137.820	1005.756	-276.584	2249.308	476.623	-131.187	2422.070	498.981	-380.288	2218.231	496.875	-241.721	2428.152	492.159	-270.857	2127.985	70.357	-151.006	2374.047	81.034	-341.806	2122.003	79.071	-221.159	2393.233	95.564	-276.403	2196.191	1461.688	-212.465	2308.323	1387.253	-147.496	2283.893	1398.997	-301.297	2283.289	1394.302	-226.293	2324.089	1195.461	-254.806	2299.206	581.598	-50.701	2518.262	667.737	-347.052	2311.670	642.887	-121.511	2423.679	693.816	-375.919	2300.523	562.207	-146.235	2446.701	609.102	-371.643	2172.815	137.127	-87.036	2491.076	187.221	-326.276	2159.158	200.909	-141.703	2430.220	242.914	-324.478	2244.853	41.836	-216.977	2503.607	69.209	-324.254
